<?xml version="1.0" encoding="UTF-8"?>
<!DOCTYPE svg PUBLIC "-//W3C//DTD SVG 1.1//EN" "http://www.w3.org/Graphics/SVG/1.1/DTD/svg11.dtd">
<!-- Creator: CorelDRAW X7 -->
<svg xmlns="http://www.w3.org/2000/svg" xml:space="preserve" width="46.811in" height="33.1102in" version="1.1" style="shape-rendering:geometricPrecision; text-rendering:geometricPrecision; image-rendering:optimizeQuality; fill-rule:evenodd; clip-rule:evenodd"
viewBox="0 0 46811 33110"
 xmlns:xlink="http://www.w3.org/1999/xlink">
 <defs>
  <style type="text/css">
   <![CDATA[
    .str0 {stroke:#373435;stroke-width:6.94488}
    .fil1 {fill:none}
    .fil0 {fill:#FEFEFE}
    .fil4 {fill:#090909}
    .fil2 {fill:#E51212}
    .fil3 {fill:#E51313}
    .fil5 {fill:#FF7800}
    .fil6 {fill:#FF7800;fill-rule:nonzero}
   ]]>
  </style>
 </defs>
 <g id="Layer_x0020_1">
  <metadata id="CorelCorpID_0Corel-Layer"/>
  <path class="fil0 str0" d="M22544 6109c-413,45 -709,51 -1138,133 -2397,460 -4183,1591 -5860,3348 -1822,1909 -2896,5236 -2601,7841 331,2915 1386,4980 3507,6972 1938,1821 5210,2898 7842,2600 2939,-333 4937,-1377 6971,-3508 1822,-1908 2896,-5236 2601,-7841 -331,-2914 -1386,-4979 -3507,-6972 -2006,-1884 -5106,-2867 -7815,-2573z"/>
  <path class="fil1 str0" d="M23496 6204c1300,12 2628,266 3820,759 574,237 2574,1283 2778,1755 280,50 1106,1025 1335,1296 370,439 759,1021 1039,1549 660,1240 1121,2559 1226,3981 275,2062 -345,4592 -1438,6357 -2253,3641 -6427,5586 -10685,4821 -2073,-373 -3704,-1246 -5239,-2651 -3155,-2886 -4190,-7777 -2396,-11691 1722,-3755 5365,-6249 9560,-6176z"/>
  <path class="fil2" d="M23162 17041c2244,-580 2810,2647 964,3173 -2203,628 -2944,-2661 -964,-3173zm-108 -738c-1330,280 -2284,1441 -2000,2864 279,1396 1774,2065 3141,1792 1336,-267 2299,-1477 1997,-2891 -292,-1370 -1823,-2041 -3138,-1765z"/>
  <path class="fil3" d="M17085 12216c-308,586 -650,1537 -837,2384 -127,465 -243,1806 -258,2047 -16,247 -33,1084 22,1280 104,-1534 144,-1696 175,-1914l1 0c61,-641 433,-2122 682,-2694 1324,-3044 4198,-2758 6887,-1624 2084,878 5580,2916 6664,5085 100,201 171,369 246,582 71,202 101,492 178,653 127,-330 -63,-998 -180,-1339 -1004,-2920 -6634,-6071 -9391,-6395 -1764,-207 -3306,252 -4189,1935z"/>
  <path class="fil4" d="M23496 6204c1300,12 2628,266 3820,759 574,237 2574,1283 2778,1755 280,50 1106,1025 1335,1296 370,439 759,1021 1039,1549 660,1240 1121,2559 1226,3981 275,2062 -345,4592 -1438,6357 -2253,3641 -6427,5586 -10685,4821 -2073,-373 -3704,-1246 -5239,-2651 -3155,-2886 -4190,-7777 -2396,-11691 1722,-3755 5365,-6249 9560,-6176zm-952 -95c-413,45 -709,51 -1138,133 -2397,460 -4183,1591 -5860,3348 -1822,1909 -2896,5236 -2601,7841 331,2915 1386,4980 3507,6972 1938,1821 5210,2898 7842,2600 2939,-333 4937,-1377 6971,-3508 1822,-1908 2896,-5236 2601,-7841 -331,-2914 -1386,-4979 -3507,-6972 -2006,-1884 -5106,-2867 -7815,-2573z"/>
  <polygon class="fil2" points="19771,16453 19756,20861 20730,20874 20740,16272 "/>
  <path class="fil5" d="M23038 17717c-94,148 -106,1705 6,1781 100,22 1466,-736 1579,-854 -84,-212 -1460,-964 -1585,-927z"/>
  <path class="fil2" d="M20005 14397c-746,278 -393,1355 453,1103 798,-237 384,-1415 -453,-1103z"/>
  <g id="_2777548435456">
   <path class="fil6" d="M25404 22624c97,59 192,89 286,89 117,0 176,-32 176,-94 0,-45 -48,-82 -145,-112 -121,-38 -204,-79 -250,-125 -45,-47 -67,-109 -67,-188 0,-95 39,-170 116,-224 77,-55 179,-82 305,-82 89,0 175,13 257,40l0 223c-75,-44 -159,-67 -250,-67 -45,0 -81,8 -109,25 -27,16 -41,37 -41,63 0,45 41,81 123,109 88,29 154,56 199,80 44,24 78,55 101,95 23,39 35,85 35,136 0,101 -41,179 -121,234 -80,56 -188,83 -322,83 -106,0 -203,-17 -293,-50l0 -235z"/>
   <path class="fil5" d="M23854 22870l143 -9c57,-157 61,-1225 -2,-1374l-175 0c-21,296 -63,1176 34,1383z"/>
   <path class="fil5" d="M20769 21624c97,175 263,166 256,-64 -268,-128 -196,1 -256,64z"/>
   <polygon class="fil6" points="23788,22886 23788,21474 24066,21474 24066,22886 "/>
   <polygon class="fil6" points="20786,22886 20786,21932 21063,21932 21063,22886 "/>
   <path class="fil6" d="M20765 21624c0,-43 15,-77 45,-104 30,-27 69,-40 116,-40 49,0 88,13 118,41 30,27 44,61 44,103 0,42 -15,77 -45,105 -31,28 -70,41 -117,41 -46,0 -85,-14 -115,-42 -31,-28 -46,-63 -46,-104z"/>
   <path class="fil6" d="M24936 22568l255 43c-33,93 -85,164 -155,213 -71,49 -159,73 -265,73 -167,0 -291,-54 -372,-164 -63,-88 -95,-199 -95,-333 0,-160 42,-285 125,-376 83,-91 189,-136 317,-136 143,0 256,48 339,142 83,95 122,240 119,436l-638 0c2,76 22,135 62,177 39,42 88,63 146,63 40,0 73,-11 100,-33 28,-21 48,-56 62,-105zm15 -258c-2,-74 -21,-130 -57,-169 -36,-38 -80,-58 -132,-58 -56,0 -102,21 -138,61 -36,41 -54,96 -53,166l380 0z"/>
   <path class="fil6" d="M21355 22886l0 -1410 274 0 0 483c196,-71 418,-106 579,57 81,83 116,211 116,372 0,168 -39,296 -119,387 -79,90 -176,135 -289,135 -56,0 -111,-14 -165,-43 -55,-29 -102,-70 -141,-125l0 144 -255 0zm258 -508c0,101 16,176 48,225 45,69 117,104 191,104 57,0 130,-25 170,-74 41,-49 61,-126 61,-231 0,-112 -21,-193 -61,-243 -41,-49 -117,-74 -180,-74 -62,0 -126,24 -167,72 -41,49 -62,122 -62,221z"/>
   <path class="fil6" d="M22574 22886l0 -1409 274 0 0 483c196,-72 418,-106 578,57 82,83 117,210 117,372 0,167 -39,296 -119,386 -79,90 -176,135 -289,135 -56,0 -111,-14 -166,-43 -54,-28 -101,-70 -140,-125l0 144 -255 0zm258 -508c0,102 16,177 48,225 45,69 116,104 191,104 57,0 130,-24 170,-74 40,-48 60,-126 60,-231 0,-112 -20,-193 -60,-243 -41,-49 -117,-74 -180,-74 -62,0 -126,24 -167,73 -41,48 -62,121 -62,220z"/>
   <path class="fil6" d="M20481 22885l-254 0 0 -492c0,-104 -6,-171 -17,-201 -11,-31 -29,-54 -53,-71 -25,-18 -55,-26 -90,-26 -44,0 -84,12 -120,36 -35,25 -59,57 -72,96 -14,40 -20,114 -20,222l0 436 -255 0 0 -965 236 0 0 142c85,-108 191,-162 320,-162 56,0 108,10 154,30 48,21 83,46 107,78 24,31 41,67 50,107 10,40 14,97 14,171l0 599z"/>
  </g>
 </g>
</svg>
