<?xml version="1.0" encoding="UTF-8"?>
<svg xmlns="http://www.w3.org/2000/svg" xmlns:xlink="http://www.w3.org/1999/xlink" width="299pt" height="212pt" viewBox="0 0 299 212" version="1.1">
<g id="surface1">
<path style="fill-rule:evenodd;fill:rgb(99.607843%,99.607843%,99.607843%);fill-opacity:1;stroke-width:6.94488;stroke-linecap:butt;stroke-linejoin:miter;stroke:rgb(21.568627%,20.392157%,20.784314%);stroke-opacity:1;stroke-miterlimit:4;" d="M 22543.870047 6108.787742 C 22131.06826 6153.93482 21835.07409 6160.035777 21405.760231 6241.788594 C 19009.063632 6701.800714 17222.70212 7832.918049 15545.809527 9589.993521 C 13723.97764 11498.982809 12650.081435 14825.834388 12944.852489 17430.942813 C 13275.705477 20345.979828 14331.254935 22411.153603 16452.138784 24403.1159 C 18390.166731 26224.251415 21662.003118 27301.070237 24294.149625 27002.733464 C 27233.29835 26670.231335 29231.259 25625.747583 31265.301584 23495.293573 C 33087.133472 21586.91438 34161.029676 18258.84261 33866.258622 15653.734185 C 33534.794076 12739.917361 32479.856176 10674.743586 30358.972327 8682.171194 C 28353.06142 6798.195827 25253.072888 5814.721639 22543.870047 6108.787742 Z M 22543.870047 6108.787742 " transform="matrix(0.00638737,0,0,0.00640268,0,0.000640268)"/>
<path style="fill:none;stroke-width:6.94488;stroke-linecap:butt;stroke-linejoin:miter;stroke:rgb(21.568627%,20.392157%,20.784314%);stroke-opacity:1;stroke-miterlimit:4;" d="M 23496.06617 6203.962664 C 24796.23891 6216.164577 26123.931769 6469.964367 27315.858707 6962.921652 C 27890.11186 7200.24886 29889.907185 8245.952804 30094.167625 8718.166837 C 30374.261282 8768.19468 31199.864856 9743.127529 31429.199182 10014.009997 C 31799.191895 10453.278865 32188.142913 11034.70002 32468.23657 11563.042852 C 33128.107871 12802.757213 33589.222756 14121.784008 33693.799209 15543.916968 C 33969.000401 17606.040265 33348.880383 20136.106925 32256.025873 21901.11364 C 30003.045452 25542.164479 25829.160715 27487.14941 21570.880946 26722.089465 C 19497.698637 26348.710928 17867.284467 25476.274148 16332.273377 24071.223867 C 13177.244606 21184.861347 12141.876568 16293.724522 13936.188336 12379.960928 C 15657.724678 8624.822203 19300.776895 6130.751186 23496.06617 6203.962664 Z M 23496.06617 6203.962664 " transform="matrix(0.00638737,0,0,0.00640268,0,0.000640268)"/>
<path style=" stroke:none;fill-rule:evenodd;fill:rgb(89.803922%,7.058824%,7.058824%);fill-opacity:1;" d="M 147.945312 109.109375 C 162.277344 105.394531 165.894531 126.058594 154.101562 129.425781 C 140.03125 133.445312 135.296875 112.386719 147.945312 109.109375 Z M 147.253906 104.382812 C 138.757812 106.175781 132.664062 113.609375 134.480469 122.722656 C 136.261719 131.660156 145.8125 135.941406 154.542969 134.195312 C 163.074219 132.484375 169.226562 124.738281 167.296875 115.683594 C 165.433594 106.914062 155.652344 102.617188 147.253906 104.382812 Z M 147.253906 104.382812 "/>
<path style=" stroke:none;fill-rule:evenodd;fill:rgb(89.803922%,7.45098%,7.45098%);fill-opacity:1;" d="M 109.128906 78.214844 C 107.160156 81.96875 104.976562 88.058594 103.78125 93.480469 C 102.972656 96.457031 102.230469 105.042969 102.132812 106.585938 C 102.03125 108.167969 101.921875 113.527344 102.273438 114.78125 C 102.9375 104.960938 103.195312 103.921875 103.390625 102.527344 L 103.398438 102.527344 C 103.789062 98.421875 106.164062 88.941406 107.753906 85.277344 C 116.210938 65.789062 134.570312 67.621094 151.746094 74.878906 C 165.054688 80.5 187.386719 93.550781 194.308594 107.4375 C 194.949219 108.726562 195.402344 109.800781 195.882812 111.164062 C 196.335938 112.457031 196.527344 114.3125 197.019531 115.34375 C 197.828125 113.230469 196.617188 108.957031 195.867188 106.773438 C 189.457031 88.074219 153.496094 67.902344 135.886719 65.828125 C 124.617188 64.5 114.769531 67.441406 109.128906 78.214844 Z M 109.128906 78.214844 "/>
<path style=" stroke:none;fill-rule:evenodd;fill:rgb(3.529412%,3.529412%,3.529412%);fill-opacity:1;" d="M 150.078125 39.722656 C 158.382812 39.800781 166.863281 41.425781 174.476562 44.582031 C 178.144531 46.101562 190.917969 52.796875 192.222656 55.820312 C 194.011719 56.140625 199.285156 62.382812 200.75 64.117188 C 203.113281 66.929688 205.597656 70.652344 207.386719 74.035156 C 211.601562 81.972656 214.546875 90.417969 215.214844 99.523438 C 216.972656 112.726562 213.011719 128.925781 206.03125 140.226562 C 191.640625 163.539062 164.980469 175.992188 137.78125 171.09375 C 124.539062 168.703125 114.125 163.117188 104.320312 154.121094 C 84.167969 135.640625 77.554688 104.324219 89.015625 79.265625 C 100.011719 55.222656 123.28125 39.253906 150.078125 39.722656 Z M 143.996094 39.113281 C 141.359375 39.402344 139.46875 39.441406 136.726562 39.964844 C 121.417969 42.910156 110.007812 50.152344 99.296875 61.402344 C 87.660156 73.625 80.800781 94.925781 82.683594 111.605469 C 84.796875 130.269531 91.539062 143.492188 105.085938 156.246094 C 117.464844 167.90625 138.363281 174.800781 155.175781 172.890625 C 173.949219 170.761719 186.710938 164.074219 199.703125 150.433594 C 211.339844 138.214844 218.199219 116.90625 216.316406 100.226562 C 214.199219 81.570312 207.460938 68.347656 193.914062 55.589844 C 181.101562 43.527344 161.300781 37.230469 143.996094 39.113281 Z M 143.996094 39.113281 "/>
<path style=" stroke:none;fill-rule:evenodd;fill:rgb(89.803922%,7.058824%,7.058824%);fill-opacity:1;" d="M 126.285156 105.34375 L 126.1875 133.566406 L 132.410156 133.648438 L 132.472656 104.183594 Z M 126.285156 105.34375 "/>
<path style=" stroke:none;fill-rule:evenodd;fill:rgb(100%,47.058824%,0%);fill-opacity:1;" d="M 147.152344 113.4375 C 146.550781 114.382812 146.476562 124.355469 147.191406 124.839844 C 147.828125 124.980469 156.554688 120.128906 157.277344 119.371094 C 156.738281 118.015625 147.949219 113.199219 147.152344 113.4375 Z M 147.152344 113.4375 "/>
<path style=" stroke:none;fill-rule:evenodd;fill:rgb(89.803922%,7.058824%,7.058824%);fill-opacity:1;" d="M 127.78125 92.179688 C 123.015625 93.960938 125.269531 100.855469 130.671875 99.242188 C 135.769531 97.726562 133.125 90.183594 127.78125 92.179688 Z M 127.78125 92.179688 "/>
<path style=" stroke:none;fill-rule:nonzero;fill:rgb(100%,47.058824%,0%);fill-opacity:1;" d="M 162.265625 144.855469 C 162.882812 145.234375 163.492188 145.425781 164.089844 145.425781 C 164.839844 145.425781 165.214844 145.21875 165.214844 144.824219 C 165.214844 144.535156 164.910156 144.296875 164.289062 144.105469 C 163.515625 143.863281 162.988281 143.601562 162.691406 143.304688 C 162.40625 143.003906 162.265625 142.609375 162.265625 142.101562 C 162.265625 141.492188 162.515625 141.011719 163.003906 140.667969 C 163.496094 140.316406 164.148438 140.144531 164.953125 140.144531 C 165.523438 140.144531 166.070312 140.226562 166.59375 140.398438 L 166.59375 141.828125 C 166.117188 141.542969 165.578125 141.398438 165 141.398438 C 164.710938 141.398438 164.480469 141.449219 164.300781 141.558594 C 164.128906 141.660156 164.039062 141.792969 164.039062 141.960938 C 164.039062 142.25 164.300781 142.480469 164.824219 142.660156 C 165.386719 142.84375 165.808594 143.015625 166.097656 143.171875 C 166.378906 143.324219 166.59375 143.523438 166.742188 143.78125 C 166.890625 144.027344 166.964844 144.324219 166.964844 144.648438 C 166.964844 145.296875 166.703125 145.796875 166.191406 146.148438 C 165.683594 146.507812 164.992188 146.679688 164.136719 146.679688 C 163.460938 146.679688 162.839844 146.570312 162.265625 146.359375 Z M 162.265625 144.855469 "/>
<path style=" stroke:none;fill-rule:evenodd;fill:rgb(100%,47.058824%,0%);fill-opacity:1;" d="M 152.363281 146.429688 L 153.277344 146.371094 C 153.640625 145.367188 153.667969 138.527344 153.265625 137.574219 L 152.148438 137.574219 C 152.011719 139.46875 151.746094 145.105469 152.363281 146.429688 Z M 152.363281 146.429688 "/>
<path style=" stroke:none;fill-rule:evenodd;fill:rgb(100%,47.058824%,0%);fill-opacity:1;" d="M 132.660156 138.453125 C 133.277344 139.574219 134.339844 139.515625 134.292969 138.042969 C 132.582031 137.222656 133.042969 138.050781 132.660156 138.453125 Z M 132.660156 138.453125 "/>
<path style=" stroke:none;fill-rule:nonzero;fill:rgb(100%,47.058824%,0%);fill-opacity:1;" d="M 151.941406 146.53125 L 151.941406 137.492188 L 153.71875 137.492188 L 153.71875 146.53125 Z M 151.941406 146.53125 "/>
<path style=" stroke:none;fill-rule:nonzero;fill:rgb(100%,47.058824%,0%);fill-opacity:1;" d="M 132.769531 146.53125 L 132.769531 140.425781 L 134.539062 140.425781 L 134.539062 146.53125 Z M 132.769531 146.53125 "/>
<path style=" stroke:none;fill-rule:nonzero;fill:rgb(100%,47.058824%,0%);fill-opacity:1;" d="M 132.632812 138.453125 C 132.632812 138.175781 132.730469 137.960938 132.921875 137.785156 C 133.113281 137.613281 133.363281 137.53125 133.664062 137.53125 C 133.976562 137.53125 134.222656 137.613281 134.414062 137.792969 C 134.609375 137.964844 134.695312 138.183594 134.695312 138.453125 C 134.695312 138.722656 134.601562 138.945312 134.410156 139.125 C 134.210938 139.304688 133.960938 139.386719 133.664062 139.386719 C 133.367188 139.386719 133.121094 139.296875 132.925781 139.117188 C 132.730469 138.9375 132.632812 138.714844 132.632812 138.453125 Z M 132.632812 138.453125 "/>
<path style=" stroke:none;fill-rule:nonzero;fill:rgb(100%,47.058824%,0%);fill-opacity:1;" d="M 159.277344 144.496094 L 160.90625 144.773438 C 160.695312 145.367188 160.363281 145.820312 159.914062 146.136719 C 159.460938 146.449219 158.898438 146.601562 158.222656 146.601562 C 157.15625 146.601562 156.363281 146.257812 155.84375 145.554688 C 155.441406 144.988281 155.238281 144.277344 155.238281 143.421875 C 155.238281 142.394531 155.507812 141.597656 156.039062 141.011719 C 156.566406 140.429688 157.246094 140.144531 158.0625 140.144531 C 158.976562 140.144531 159.695312 140.449219 160.226562 141.050781 C 160.757812 141.660156 161.007812 142.589844 160.988281 143.84375 L 156.914062 143.84375 C 156.925781 144.328125 157.050781 144.707031 157.308594 144.976562 C 157.558594 145.246094 157.871094 145.378906 158.242188 145.378906 C 158.496094 145.378906 158.707031 145.308594 158.878906 145.167969 C 159.058594 145.035156 159.1875 144.808594 159.277344 144.496094 Z M 159.371094 142.84375 C 159.359375 142.371094 159.238281 142.011719 159.007812 141.761719 C 158.777344 141.519531 158.496094 141.390625 158.164062 141.390625 C 157.804688 141.390625 157.511719 141.527344 157.28125 141.78125 C 157.050781 142.042969 156.9375 142.394531 156.945312 142.84375 Z M 159.371094 142.84375 "/>
<path style=" stroke:none;fill-rule:nonzero;fill:rgb(100%,47.058824%,0%);fill-opacity:1;" d="M 136.402344 146.53125 L 136.402344 137.503906 L 138.152344 137.503906 L 138.152344 140.597656 C 139.40625 140.144531 140.824219 139.917969 141.851562 140.960938 C 142.367188 141.492188 142.589844 142.3125 142.589844 143.34375 C 142.589844 144.417969 142.34375 145.238281 141.832031 145.820312 C 141.328125 146.398438 140.707031 146.6875 139.984375 146.6875 C 139.628906 146.6875 139.277344 146.597656 138.933594 146.410156 C 138.582031 146.226562 138.28125 145.960938 138.03125 145.609375 L 138.03125 146.53125 Z M 138.050781 143.28125 C 138.050781 143.925781 138.152344 144.40625 138.355469 144.71875 C 138.644531 145.164062 139.105469 145.386719 139.578125 145.386719 C 139.941406 145.386719 140.40625 145.226562 140.664062 144.914062 C 140.925781 144.597656 141.050781 144.105469 141.050781 143.433594 C 141.050781 142.714844 140.917969 142.199219 140.664062 141.878906 C 140.402344 141.5625 139.914062 141.402344 139.511719 141.402344 C 139.117188 141.402344 138.707031 141.558594 138.445312 141.863281 C 138.183594 142.179688 138.050781 142.644531 138.050781 143.28125 Z M 138.050781 143.28125 "/>
<path style=" stroke:none;fill-rule:nonzero;fill:rgb(100%,47.058824%,0%);fill-opacity:1;" d="M 144.1875 146.53125 L 144.1875 137.511719 L 145.9375 137.511719 L 145.9375 140.605469 C 147.191406 140.144531 148.609375 139.925781 149.628906 140.96875 C 150.15625 141.5 150.378906 142.3125 150.378906 143.351562 C 150.378906 144.417969 150.128906 145.246094 149.617188 145.820312 C 149.113281 146.398438 148.492188 146.6875 147.773438 146.6875 C 147.414062 146.6875 147.0625 146.597656 146.710938 146.410156 C 146.367188 146.230469 146.066406 145.960938 145.816406 145.609375 L 145.816406 146.53125 Z M 145.835938 143.28125 C 145.835938 143.933594 145.9375 144.414062 146.144531 144.71875 C 146.429688 145.164062 146.882812 145.386719 147.363281 145.386719 C 147.726562 145.386719 148.195312 145.234375 148.449219 144.914062 C 148.703125 144.605469 148.832031 144.105469 148.832031 143.433594 C 148.832031 142.714844 148.703125 142.199219 148.449219 141.878906 C 148.1875 141.5625 147.703125 141.402344 147.300781 141.402344 C 146.902344 141.402344 146.496094 141.558594 146.234375 141.871094 C 145.96875 142.179688 145.835938 142.644531 145.835938 143.28125 Z M 145.835938 143.28125 "/>
<path style=" stroke:none;fill-rule:nonzero;fill:rgb(100%,47.058824%,0%);fill-opacity:1;" d="M 130.820312 146.527344 L 129.199219 146.527344 L 129.199219 143.375 C 129.199219 142.710938 129.160156 142.28125 129.089844 142.089844 C 129.019531 141.890625 128.902344 141.742188 128.75 141.632812 C 128.589844 141.519531 128.398438 141.46875 128.175781 141.46875 C 127.894531 141.46875 127.640625 141.542969 127.410156 141.699219 C 127.183594 141.859375 127.03125 142.0625 126.949219 142.3125 C 126.859375 142.570312 126.820312 143.042969 126.820312 143.734375 L 126.820312 146.527344 L 125.191406 146.527344 L 125.191406 140.347656 L 126.699219 140.347656 L 126.699219 141.257812 C 127.242188 140.566406 127.917969 140.21875 128.742188 140.21875 C 129.101562 140.21875 129.433594 140.285156 129.726562 140.410156 C 130.035156 140.546875 130.257812 140.707031 130.410156 140.910156 C 130.5625 141.109375 130.671875 141.339844 130.730469 141.597656 C 130.792969 141.851562 130.820312 142.21875 130.820312 142.691406 Z M 130.820312 146.527344 "/>
</g>
</svg>
